<?xml version="1.0" encoding="UTF-8"?>
<!DOCTYPE svg PUBLIC "-//W3C//DTD SVG 1.1//EN" "http://www.w3.org/Graphics/SVG/1.1/DTD/svg11.dtd">
<svg xmlns="http://www.w3.org/2000/svg" version="1.1" width="225px" height="225px" style="shape-rendering:geometricPrecision; text-rendering:geometricPrecision; image-rendering:optimizeQuality; fill-rule:evenodd; clip-rule:evenodd" xmlns:xlink="http://www.w3.org/1999/xlink">
<g><path style="opacity:1" fill="#fdfdfd" d="M -0.5,-0.5 C 74.5,-0.5 149.5,-0.5 224.5,-0.5C 224.5,74.5 224.5,149.5 224.5,224.5C 149.5,224.5 74.5,224.5 -0.5,224.5C -0.5,149.5 -0.5,74.5 -0.5,-0.5 Z"/></g>
<g><path style="opacity:1" fill="#222222" d="M 49.5,56.5 C 80.131,53.7228 100.631,66.7228 111,95.5C 111.5,104.16 111.666,112.827 111.5,121.5C 80.5,121.5 49.5,121.5 18.5,121.5C 19.4841,153.32 35.8174,168.82 67.5,168C 82.3648,164.125 93.3648,155.458 100.5,142C 103.465,140.502 106.465,140.335 109.5,141.5C 102.564,162.267 88.2308,174.101 66.5,177C 34.0664,177.58 15.2331,161.747 10,129.5C 3.6552,101.077 12.1552,78.5772 35.5,62C 40.1587,59.8421 44.8254,58.0088 49.5,56.5 Z"/></g>
<g><path style="opacity:1" fill="#696969" d="M 121.5,61.5 C 118.941,61.1984 116.607,61.5318 114.5,62.5C 113.957,62.44 113.624,62.1067 113.5,61.5C 116.309,60.1997 118.976,60.1997 121.5,61.5 Z"/></g>
<g><path style="opacity:1" fill="#232323" d="M 114.5,62.5 C 116.607,61.5318 118.941,61.1984 121.5,61.5C 124.64,62.1289 127.14,63.7956 129,66.5C 139.603,80.7194 150.436,94.7194 161.5,108.5C 173.034,93.2818 184.701,78.1152 196.5,63C 200.595,60.7798 204.928,60.1131 209.5,61C 195.486,79.6775 181.486,98.3442 167.5,117C 182.152,136.322 196.819,155.656 211.5,175C 206.816,176.102 202.483,175.436 198.5,173C 186.518,156.856 174.185,141.023 161.5,125.5C 159.851,126.648 158.351,127.981 157,129.5C 146.265,144.905 134.765,159.738 122.5,174C 118.961,175.504 115.295,175.837 111.5,175C 126.359,155.642 141.026,136.142 155.5,116.5C 141.809,98.4814 128.142,80.4814 114.5,62.5 Z"/></g>
<g><path style="opacity:1" fill="#fbfbfb" d="M 50.5,65.5 C 76.5694,62.7764 93.736,73.7764 102,98.5C 102.499,103.155 102.666,107.821 102.5,112.5C 74.5,112.5 46.5,112.5 18.5,112.5C 18.1948,89.1717 28.8615,73.5051 50.5,65.5 Z"/></g>
</svg>
